<?xml version="1.0" encoding="utf-8"?>
<!-- Generator: Adobe Illustrator 26.3.1, SVG Export Plug-In . SVG Version: 6.00 Build 0)  -->
<svg version="1.1"
	 id="svg9579" xmlns:inkscape="http://www.inkscape.org/namespaces/inkscape" xmlns:sodipodi="http://sodipodi.sourceforge.net/DTD/sodipodi-0.dtd" inkscape:version="0.91 r13725" sodipodi:docname="icon-computer.svg" xmlns:svg="http://www.w3.org/2000/svg" xmlns:dc="http://purl.org/dc/elements/1.1/" xmlns:rdf="http://www.w3.org/1999/02/22-rdf-syntax-ns#" xmlns:cc="http://creativecommons.org/ns#"
	 xmlns="http://www.w3.org/2000/svg" xmlns:xlink="http://www.w3.org/1999/xlink" x="0px" y="0px" viewBox="0 0 64.2 45.6"
	 style="enable-background:new 0 0 64.2 45.6;" xml:space="preserve">
<style type="text/css">
	.st0{fill:#666869;}
	.st1{fill:#FFFFFF;}
	.st2{fill-rule:evenodd;clip-rule:evenodd;fill:#FFFFFF;stroke:#666869;stroke-width:0.8;stroke-miterlimit:3.2;}
</style>
<sodipodi:namedview  bordercolor="#666666" borderopacity="1.0" fit-margin-bottom="0" fit-margin-left="0" fit-margin-right="0" fit-margin-top="0" id="base" inkscape:current-layer="layer1" inkscape:cx="70.309142" inkscape:cy="10.428793" inkscape:document-units="px" inkscape:guide-bbox="true" inkscape:pageopacity="0.0" inkscape:pageshadow="2" inkscape:window-height="711" inkscape:window-maximized="1" inkscape:window-width="1366" inkscape:window-x="0" inkscape:window-y="0" inkscape:zoom="6.1796875" pagecolor="#ffffff" showgrid="false" showguides="true">
	<sodipodi:guide  id="guide10138" orientation="0.84914489,-0.52815997" position="41.227539,68.150758"></sodipodi:guide>
	<sodipodi:guide  id="guide10140" orientation="0.86188337,0.50710655" position="41.227539,68.150758"></sodipodi:guide>
	<sodipodi:guide  id="guide10142" orientation="0.87934005,-0.47619436" position="41.227539,68.150758"></sodipodi:guide>
	<sodipodi:guide  id="guide10144" orientation="0.88905216,0.45780591" position="41.227539,68.150758"></sodipodi:guide>
	<sodipodi:guide  id="guide10146" orientation="0.90936413,-0.41600106" position="41.227539,68.150758"></sodipodi:guide>
	<sodipodi:guide  id="guide10148" orientation="0.9379571,-0.34675132" position="41.227539,68.150758"></sodipodi:guide>
	<sodipodi:guide  id="guide10150" orientation="0.96272084,-0.27049693" position="41.227539,68.150758"></sodipodi:guide>
	<sodipodi:guide  id="guide10152" orientation="0.98264022,-0.1855214" position="41.227539,68.150758"></sodipodi:guide>
	<sodipodi:guide  id="guide10154" orientation="0.99556329,-0.094094314" position="41.227539,68.150758"></sodipodi:guide>
	<sodipodi:guide  id="guide10156" orientation="0.92152969,0.38830792" position="41.227539,68.150758"></sodipodi:guide>
	<sodipodi:guide  id="guide10158" orientation="0.95202036,0.30603471" position="41.227539,68.150758"></sodipodi:guide>
	<sodipodi:guide  id="guide10160" orientation="0.97672663,0.21448796" position="41.227539,68.150758"></sodipodi:guide>
	<sodipodi:guide  id="guide10162" orientation="0.9938834,0.11043452" position="41.227539,68.150758"></sodipodi:guide>
	<sodipodi:guide  id="guide10164" orientation="1,0" position="41.227539,68.150758"></sodipodi:guide>
	<sodipodi:guide  id="guide10166" orientation="0,1" position="6.0809778,11.644161"></sodipodi:guide>
	<sodipodi:guide  id="guide10168" orientation="0,1" position="4.6989518,9.4222215"></sodipodi:guide>
	<sodipodi:guide  id="guide10170" orientation="0,1" position="1.1609137,3.7339718"></sodipodi:guide>
	<sodipodi:guide  id="guide10172" orientation="0,1" position="2.8916507,6.5165516"></sodipodi:guide>
</sodipodi:namedview>
<g id="layer1" transform="translate(-95.166302,-362.35968)" inkscape:groupmode="layer" inkscape:label="Layer 1">
	<path id="rect10127" class="st0" d="M101.9,362.4h49.9c0.9,0,1.6,0.7,1.6,1.6v31c0,0.9-0.7,1.6-1.6,1.6h-49.9
		c-0.9,0-1.6-0.7-1.6-1.6v-31C100.3,363.1,101,362.4,101.9,362.4z"/>
	<path id="rect10129" class="st1" d="M104.8,365.5H149c0.9,0,1.6,0.7,1.6,1.6v24.5c0,0.9-0.7,1.6-1.6,1.6h-44.2
		c-0.9,0-1.6-0.7-1.6-1.6v-24.5C103.2,366.2,103.9,365.5,104.8,365.5z"/>
	<path id="rect10131" sodipodi:nodetypes="sssssssss" inkscape:connector-curvature="0" class="st0" d="M101.7,397.1h51.2
		c0.9,0,1.4,0.8,1.9,1.6l4.5,7.7c0.5,0.8-0.7,1.6-1.6,1.6H96.9c-0.9,0-2.1-0.8-1.6-1.6l4.8-7.7C100.5,397.9,100.8,397.1,101.7,397.1
		z"/>
	<g id="g10263">
		<path id="path10174" inkscape:connector-curvature="0" class="st2" d="M100.2,404.9l1.2-2.2h4.1l-1,2.2H100.2z"/>
		<path id="path10176" inkscape:connector-curvature="0" class="st2" d="M101.4,402.7l1.3-2.3h3.9l-1.1,2.3H101.4z"/>
		<path id="path10178" inkscape:connector-curvature="0" class="st2" d="M102.7,400.4l1-1.8h3.8l-0.8,1.8H102.7z"/>
		<path id="path10180" inkscape:connector-curvature="0" class="st2" d="M107.5,398.6h4l-0.7,1.8h-4.1L107.5,398.6z"/>
		<path id="path10182" inkscape:connector-curvature="0" class="st2" d="M106.7,400.4l-1.1,2.3h4.3l0.9-2.3H106.7z"/>
		<path id="path10184" inkscape:connector-curvature="0" class="st2" d="M105.6,402.7l-1,2.2h4.5l0.8-2.2H105.6z"/>
		<path id="path10186" inkscape:connector-curvature="0" class="st2" d="M109.1,404.9h4.6l0.6-2.2h-4.4L109.1,404.9z"/>
		<path id="path10188" inkscape:connector-curvature="0" class="st2" d="M109.9,402.7l0.9-2.3h4.2l-0.7,2.3H109.9z"/>
		<path id="path10190" inkscape:connector-curvature="0" class="st2" d="M110.8,400.4l0.7-1.8h4l-0.5,1.8
			C114.9,400.4,110.8,400.4,110.8,400.4z"/>
		<path id="path10192" inkscape:connector-curvature="0" class="st2" d="M115.4,398.6h4.2l-0.3,1.8h-4.3L115.4,398.6z"/>
		<path id="path10194" inkscape:connector-curvature="0" class="st2" d="M114.9,400.4l-0.7,2.3h4.5l0.4-2.3H114.9z"/>
		<path id="path10210" inkscape:connector-curvature="0" class="st2" d="M113.7,404.9l0.6-2.2H139l0.5,2.2H113.7z"/>
		<path id="path10212" inkscape:connector-curvature="0" class="st2" d="M118.8,402.7l0.4-2.3h4.4l-0.2,2.3H118.8z"/>
		<path id="path10214" inkscape:connector-curvature="0" class="st2" d="M119.3,400.4l0.3-1.8h4.3l-0.2,1.8H119.3z"/>
		<path id="path10216" inkscape:connector-curvature="0" class="st2" d="M123.5,402.7h4.7v-2.3h-4.4L123.5,402.7L123.5,402.7z"/>
		<path id="path10218" inkscape:connector-curvature="0" class="st2" d="M123.7,400.4l0.2-1.8h4.3v1.8H123.7L123.7,400.4z"/>
		<path id="path10220" inkscape:connector-curvature="0" class="st2" d="M128.1,398.6h5l0.2,1.8h-5.2V398.6z"/>
		<path id="path10222" inkscape:connector-curvature="0" class="st2" d="M128.1,400.4v2.3h5.5l-0.3-2.3H128.1z"/>
		<path id="path10224" inkscape:connector-curvature="0" class="st2" d="M133.2,398.6h4.9l0.4,1.8h-5.1L133.2,398.6z"/>
		<path id="path10226" inkscape:connector-curvature="0" class="st2" d="M133.4,400.4l0.3,2.3h5.3l-0.5-2.3H133.4z"/>
		<path id="path10228" inkscape:connector-curvature="0" class="st2" d="M139,402.7l0.5,2.2h5.2l-0.7-2.2H139z"/>
		<path id="path10230" inkscape:connector-curvature="0" class="st2" d="M139,402.7l-0.5-2.3h4.8l0.7,2.3H139z"/>
		<path id="path10232" inkscape:connector-curvature="0" class="st2" d="M138.5,400.4l-0.4-1.8h4.6l0.6,1.8H138.5z"/>
		<path id="path10234" inkscape:connector-curvature="0" class="st2" d="M142.7,398.6h4.5l0.7,1.8h-4.7L142.7,398.6z"/>
		<path id="path10236" inkscape:connector-curvature="0" class="st2" d="M143.3,400.4l0.7,2.3h4.9l-1-2.3H143.3z"/>
		<path id="path10238" inkscape:connector-curvature="0" class="st2" d="M144,402.7l0.7,2.2h5.1l-0.9-2.2H144z"/>
		<path id="path10240" inkscape:connector-curvature="0" class="st2" d="M149.9,404.9h4.8l-2.3-4.6h-4.4L149.9,404.9z"/>
		<path id="path10242" inkscape:connector-curvature="0" class="st2" d="M147.9,400.4l-0.7-1.8h4.2l0.9,1.8H147.9z"/>
	</g>
</g>
</svg>
